#!OML:ASF F:\VICON\USERDATA\INSTALL\rory3\rory3.ASF
:FULLY-SPECIFIED
:DEGREES
81
root 0.12989016594275227 17.888115101558395 34.113482022217376 -1.7033859381744736 -4.666104678976311 -7.599353807316337
lfemur -25.467018358815327 -0.32082267452877256 -10.84808575637623
ltibia 39.28975301077132
lfoot -6.065689884486269 5.890098012063623
ltoes -4.511503070328604
rfemur 0.02396783418174664 6.204570513771917 35.16942131773431
rtibia 26.806665326571895
rfoot -19.448493864366142 -6.457392339760649
rtoes 7.476600143947801
lowerback 9.663409318515484 2.0795875335740295 6.950410899589642
upperback 0.5656085239917715 3.6224866393165147 2.318855940780325
thorax -4.711593482053883 1.671453578087509 -1.7301353026633555
lowerneck -16.395275441715018 -2.81357552875545 -1.9359934425035568
upperneck 20.085440064106677 -3.6326246389193146 1.215495942254506
head 9.048826634213755 -1.736167389482045 0.2842340098666612
lclavicle -1.6725489017981508e-15 1.1647545255199185e-15
lhumerus -32.67561820513454 3.7162806032261493 83.38301199636969
lradius 23.757096797536423
lwrist 4.1761431174715336
lhand -28.684992538935262 21.554601334606957
lfingers 7.12502
lthumb -2.047444016522123 51.51620701091754
rclavicle -1.6725489017981508e-15 1.1647545255199185e-15
rhumerus -24.74957816865356 -10.393355394994792 -81.91202786528713
rradius 27.742363246690633
rwrist 2.15223262617594
rhand -17.98933820935921 23.39166326581116
rfingers 7.12502
rthumb 8.280546426386147 -6.430169421849645
82
root 0.1710552341603725 17.825208001444224 34.84535046418319 -1.0687181470564044 -5.254910693070226 -7.906667827200646
lfemur -24.893154923985257 -2.519171777481871 -9.328957571459561
ltibia 28.377486919103973
lfoot -5.7661054359056125 8.430713623215906
ltoes -4.154875770407943
rfemur 2.910068815298116 6.422840663058462 35.68900413579992
rtibia 25.763405401569983
rfoot -20.23097722689866 -6.604796889806509
rtoes 6.341562237693199
lowerback 9.409153311990808 2.4203311953301854 7.48795390563579
upperback 0.5166473067305025 4.10728171455565 2.3411113901021254
thorax -4.581754689778512 1.9038730364827268 -1.9548929441209886
lowerneck -16.552283096490182 -2.8094360257925906 -1.824081989149442
upperneck 19.946705578813148 -3.635861005841352 1.2366656133054805
head 9.025251070713862 -1.7339202378478635 0.2742672253886139
lclavicle -1.310920097206054e-15 1.4977219987127648e-15
lhumerus -33.364382075459744 5.533879863481945 82.76188331240262
lradius 22.566723133827725
lwrist 3.589868656342311
lhand -28.604566344219602 22.190214378093355
lfingers 7.12502
lthumb -1.9697488742849993 52.150143018583314
rclavicle -1.310920097206054e-15 1.4977219987127648e-15
rhumerus -23.72259879017323 -9.58136700490586 -81.87880466650563
rradius 28.41654693695565
rwrist 1.7841977951865697
rhand -18.047299906943028 23.987028870149793
rfingers 7.12502
rthumb 8.224598517459446 -5.837610920141529
83
root 0.23197350549924176 17.758291962218635 35.76108381427883 -0.5629006914828443 -5.726137397143677 -7.949397285625615
lfemur -23.781282748750353 -4.481159450753577 -8.084394596546069
ltibia 19.623433652943508
lfoot -5.514504631320781 10.087192836138026
ltoes -3.5788281819315015
rfemur 6.065213618405359 6.672667423221542 35.99045172434285
rtibia 25.531852405041104
rfoot -20.770420629661565 -6.235813864591945
rtoes 4.256395801399489
lowerback 9.168374197360842 2.7531248568084052 7.844822547936478
upperback 0.4759737911547284 4.556737288318303 2.3254172198472194
thorax -4.458674548740892 2.1226816192341555 -2.063260181477658
lowerneck -16.660528933941535 -2.8062331603692323 -1.708927179436599
upperneck 19.898926994432507 -3.6450471523092367 1.293243480033332
head 9.029892573271642 -1.7327751104116382 0.2739609475680309
lclavicle -7.39347444741792e-16 2.0242697918286704e-15
lhumerus -34.023536291324774 7.381495292174834 82.0816222901454
lradius 21.26277449771183
lwrist 2.792383137448995
lhand -28.264420617469774 23.134551347009314
lfingers 7.12502
lthumb -1.6412134405367134 53.095867370621455
rclavicle -7.39347444741792e-16 2.0242697918286704e-15
rhumerus -22.84144058430323 -9.213587302846742 -81.7532775862985
rradius 28.947415774896626
rwrist 1.715895108640793
rhand -18.07807030372356 24.19892227728767
rfingers 7.12502
rthumb 8.194894588343796 -5.627202527973028
84
root 0.28099356167110234 17.690082970276723 35.703458487589295 -0.38805848194847337 -6.135656572475339 -7.865094226968601
lfemur -23.346480437148294 -5.571467833242631 -8.045758048691114
ltibia 14.556704068467962
lfoot -5.346493226676202 9.771157832187841
ltoes -3.016555001417654
rfemur 8.203169276609508 6.724050951834611 35.64116934898135
rtibia 25.735360076335326
rfoot -21.31781534108068 -5.494893948677466
rtoes 1.1719893548454552
lowerback 8.983517764784455 2.9282570870858815 7.728550704897395
upperback 0.4374699075465594 4.754627266598938 2.2105210812686584
thorax -4.3981771697233984 2.2249805167407635 -2.159653864814761
lowerneck -16.726613495654608 -2.8287932161064337 -1.651103300993395
upperneck 19.905381886874782 -3.6951835710705714 1.3281578472740723
head 9.042591151069006 -1.7476087385544579 0.26659994980792145
lclavicle -9.077350380371819e-16 1.8694778312516566e-15
lhumerus -34.94926908634377 8.788135530962128 81.31477030405975
lradius 19.778081162786286
lwrist 1.6243750205711178
lhand -27.88638038247109 23.697433156073775
lfingers 7.12502
lthumb -1.2760845047611258 53.66238585030423
rclavicle -9.077350380371819e-16 1.8694778312516566e-15
rhumerus -22.426416085604927 -9.533614703213606 -81.73273505249415
rradius 29.14489758759145
rwrist 1.7068962021731426
rhand -18.151863014996426 24.092668418765957
rfingers 7.12502
rthumb 8.123670909749935 -5.734490888333921
85
root 0.3248202171631143 17.6381120148577 35.30536771505241 -0.5661686040127278 -6.323745502634537 -7.547660339689344
lfemur -23.45136108813743 -5.524258900834283 -9.18097323491933
ltibia 14.147506363759874
lfoot -4.641045685087325 7.429748643719392
ltoes -2.283417417954964
rfemur 9.524012845292411 6.539266458698319 34.7508834913549
rtibia 27.070834038551098
rfoot -20.76716261234411 -4.179930151777076
rtoes -2.1351397501380807
lowerback 8.857226873895769 2.969887010279276 7.250242169798942
upperback 0.4046955238157281 4.745376064768719 2.021189728543836
thorax -4.385634816573438 2.230284555178889 -2.191927983737197
lowerneck -16.68729393765856 -2.8834345439806026 -1.6547720990633092
upperneck 19.95753248229489 -3.7923788914341388 1.371452779037182
head 9.05530022434171 -1.7820292553742394 0.2643380986978633
lclavicle -1.3928921491481387e-15 1.4229508048295171e-15
lhumerus -36.02809043070131 9.972061647659176 80.46681086383168
lradius 18.28502746379446
lwrist 0.15220456200839827
lhand -27.47187416125946 23.66057006569003
lfingers 7.12502
lthumb -0.8757441473909975 53.63009331144551
rclavicle -1.3928921491481387e-15 1.4229508048295171e-15
rhumerus -22.469397179369913 -10.379650248268256 -81.71736886601978
rradius 29.120355801557324
rwrist 1.8437568336290981
rhand -18.260339765645522 24.003726419136918
rfingers 7.12502
rthumb 8.018971185999641 -5.8253213123336804
86
root 0.3841140878641952 17.616411025280488 35.34290916732058 -1.001285070616104 -6.231081615890453 -6.9347024631505345
lfemur -23.694988518404234 -4.667464431564955 -11.018462210878463
ltibia 17.395041772250263
lfoot -3.5913440825072365 4.0360287391022185
ltoes -1.2505954364984029
rfemur 10.25346829255615 6.121087821133789 33.470113824847616
rtibia 29.992973024113873
rfoot -17.623800958766047 -2.145407934727854
rtoes -4.48546761846767
lowerback 8.782439461709162 2.968453127905312 6.615321887047191
upperback 0.38221898340277255 4.666850956647222 1.7843593959882647
thorax -4.396693021470278 2.202757823919657 -2.14620178690119
lowerneck -16.53673722545144 -2.9634528192145426 -1.6978700803165085
upperneck 20.076525810864 -3.9226252225036804 1.44960376803217
head 9.080161207172688 -1.8320012128421774 0.2742608948312019
lclavicle -1.7162306843177643e-15 1.1253892438502797e-15
lhumerus -37.03291475759825 11.093237993365115 79.62444591930159
lradius 17.02117269187476
lwrist -1.3284101409510978
lhand -26.885540695486625 23.419558870674603
lfingers 7.12502
lthumb -0.3094607825877485 53.393047816917594
rclavicle -1.7162306843177643e-15 1.1253892438502797e-15
rhumerus -22.86007505954158 -11.480926842842571 -81.6396511226467
rradius 29.084191431198285
rwrist 2.106690140606422
rhand -18.35593957789812 24.029198270507102
rfingers 7.12502
rthumb 7.926703821754147 -5.80226238817532
87
root 0.47251068532912816 17.631563440365547 36.38897473260985 -1.5692299386161874 -5.889784161271315 -5.933348495769662
lfemur -23.167484506157532 -3.6075803216246154 -13.091855325121612
ltibia 22.216229740428158
lfoot -2.5257650108177785 0.8427426864821306
ltoes 0.12668542684120254
rfemur 10.222267417047547 5.49680872416792 31.832250060118927
rtibia 35.147054813363766
rfoot -10.718216891742346 0.3907788327430408
rtoes -4.534528044045441
lowerback 8.76401197238606 2.9911091293879886 5.921692073047595
upperback 0.3593471598304774 4.6136789723441485 1.5235912419026654
thorax -4.4240475593330615 2.1873411453783875 -1.9697683553061291
lowerneck -16.32759212222178 -3.0446129202319305 -1.7602638604613308
upperneck 20.276655980079248 -4.047194900030361 1.5647492933209006
head 9.130908451992049 -1.8822282061809867 0.3005180344821635
lclavicle -1.4839677429512e-15 1.339360240451927e-15
lhumerus -37.73973722163555 12.025686018265525 78.97027721715577
lradius 16.30316790876308
lwrist -2.2180843157692127
lhand -26.13104800813771 23.46894048140057
lfingers 7.12502
lthumb 0.4192249024239012 53.4442288067111
rclavicle -1.4839677429512e-15 1.339360240451927e-15
rhumerus -23.5125249395714 -12.56920109885348 -81.42712852561903
rradius 29.161908647713553
rwrist 2.5240481170256577
rhand -18.32967537349021 24.146192642650064
rfingers 7.12502
rthumb 7.952058785988736 -5.685275576532559
